<mxfile host="app.diagrams.net" modified="2024-06-22T10:30:52.983Z" agent="Mozilla/5.0 (Windows NT 10.0; Win64; x64) AppleWebKit/537.36 (KHTML, like Gecko) Chrome/123.0.0.0 Safari/537.36 OPR/109.0.0.0" etag="HeVEDeRaLeaZ58qlpACs" version="24.6.1" type="device">
  <diagram name="Сторінка-1" id="VfSigHIlXigz5TY4K7iH">
    <mxGraphModel dx="2933" dy="1449" grid="0" gridSize="10" guides="1" tooltips="1" connect="1" arrows="1" fold="1" page="0" pageScale="1" pageWidth="827" pageHeight="1169" background="none" math="0" shadow="0">
      <root>
        <mxCell id="0" />
        <mxCell id="1" parent="0" />
        <mxCell id="U90lkcQAft6ZCRrswfQR-62" value="" style="edgeStyle=orthogonalEdgeStyle;rounded=0;orthogonalLoop=1;jettySize=auto;html=1;" parent="1" source="U90lkcQAft6ZCRrswfQR-60" target="U90lkcQAft6ZCRrswfQR-61" edge="1">
          <mxGeometry relative="1" as="geometry" />
        </mxCell>
        <mxCell id="U90lkcQAft6ZCRrswfQR-60" value="Початок" style="ellipse;whiteSpace=wrap;html=1;" parent="1" vertex="1">
          <mxGeometry x="46" y="40" width="120" height="80" as="geometry" />
        </mxCell>
        <mxCell id="U90lkcQAft6ZCRrswfQR-64" value="" style="edgeStyle=orthogonalEdgeStyle;rounded=0;orthogonalLoop=1;jettySize=auto;html=1;" parent="1" source="U90lkcQAft6ZCRrswfQR-61" target="U90lkcQAft6ZCRrswfQR-63" edge="1">
          <mxGeometry relative="1" as="geometry" />
        </mxCell>
        <mxCell id="U90lkcQAft6ZCRrswfQR-61" value="Вхід в систему" style="whiteSpace=wrap;html=1;" parent="1" vertex="1">
          <mxGeometry x="46" y="170" width="120" height="60" as="geometry" />
        </mxCell>
        <mxCell id="U90lkcQAft6ZCRrswfQR-66" value="" style="edgeStyle=orthogonalEdgeStyle;rounded=0;orthogonalLoop=1;jettySize=auto;html=1;" parent="1" source="U90lkcQAft6ZCRrswfQR-63" target="U90lkcQAft6ZCRrswfQR-65" edge="1">
          <mxGeometry relative="1" as="geometry" />
        </mxCell>
        <mxCell id="U90lkcQAft6ZCRrswfQR-63" value="Перехід на головну сторінку&amp;nbsp;" style="whiteSpace=wrap;html=1;" parent="1" vertex="1">
          <mxGeometry x="46" y="270" width="120" height="60" as="geometry" />
        </mxCell>
        <mxCell id="U90lkcQAft6ZCRrswfQR-68" value="" style="edgeStyle=orthogonalEdgeStyle;rounded=0;orthogonalLoop=1;jettySize=auto;html=1;" parent="1" source="U90lkcQAft6ZCRrswfQR-65" target="U90lkcQAft6ZCRrswfQR-67" edge="1">
          <mxGeometry relative="1" as="geometry" />
        </mxCell>
        <mxCell id="U90lkcQAft6ZCRrswfQR-65" value="Відображення списку&amp;nbsp;&lt;div&gt;карток&lt;/div&gt;" style="shape=parallelogram;perimeter=parallelogramPerimeter;whiteSpace=wrap;html=1;fixedSize=1;" parent="1" vertex="1">
          <mxGeometry x="26" y="370" width="160" height="60" as="geometry" />
        </mxCell>
        <mxCell id="U90lkcQAft6ZCRrswfQR-70" value="" style="edgeStyle=orthogonalEdgeStyle;rounded=0;orthogonalLoop=1;jettySize=auto;html=1;" parent="1" source="U90lkcQAft6ZCRrswfQR-67" target="U90lkcQAft6ZCRrswfQR-69" edge="1">
          <mxGeometry relative="1" as="geometry" />
        </mxCell>
        <mxCell id="U90lkcQAft6ZCRrswfQR-67" value="Натискання кнопки &quot;Створити нову картку&quot;" style="whiteSpace=wrap;html=1;align=center;" parent="1" vertex="1">
          <mxGeometry x="46" y="470" width="120" height="60" as="geometry" />
        </mxCell>
        <mxCell id="U90lkcQAft6ZCRrswfQR-72" value="" style="edgeStyle=orthogonalEdgeStyle;rounded=0;orthogonalLoop=1;jettySize=auto;html=1;" parent="1" source="U90lkcQAft6ZCRrswfQR-69" target="U90lkcQAft6ZCRrswfQR-71" edge="1">
          <mxGeometry relative="1" as="geometry" />
        </mxCell>
        <mxCell id="U90lkcQAft6ZCRrswfQR-69" value="Відображення форми створення картки" style="whiteSpace=wrap;html=1;" parent="1" vertex="1">
          <mxGeometry x="46" y="580" width="120" height="60" as="geometry" />
        </mxCell>
        <mxCell id="U90lkcQAft6ZCRrswfQR-74" value="" style="edgeStyle=orthogonalEdgeStyle;rounded=0;orthogonalLoop=1;jettySize=auto;html=1;" parent="1" source="U90lkcQAft6ZCRrswfQR-71" target="U90lkcQAft6ZCRrswfQR-73" edge="1">
          <mxGeometry relative="1" as="geometry" />
        </mxCell>
        <mxCell id="U90lkcQAft6ZCRrswfQR-71" value="Введення&amp;nbsp;&lt;div&gt;заголовку картки&lt;/div&gt;" style="shape=parallelogram;perimeter=parallelogramPerimeter;whiteSpace=wrap;html=1;fixedSize=1;" parent="1" vertex="1">
          <mxGeometry x="46" y="690" width="120" height="60" as="geometry" />
        </mxCell>
        <mxCell id="U90lkcQAft6ZCRrswfQR-76" value="" style="edgeStyle=orthogonalEdgeStyle;rounded=0;orthogonalLoop=1;jettySize=auto;html=1;" parent="1" source="U90lkcQAft6ZCRrswfQR-73" target="U90lkcQAft6ZCRrswfQR-75" edge="1">
          <mxGeometry relative="1" as="geometry" />
        </mxCell>
        <mxCell id="U90lkcQAft6ZCRrswfQR-73" value="Вибір місця зниклого" style="whiteSpace=wrap;html=1;" parent="1" vertex="1">
          <mxGeometry x="46" y="790" width="120" height="60" as="geometry" />
        </mxCell>
        <mxCell id="U90lkcQAft6ZCRrswfQR-78" value="" style="edgeStyle=orthogonalEdgeStyle;rounded=0;orthogonalLoop=1;jettySize=auto;html=1;" parent="1" source="U90lkcQAft6ZCRrswfQR-75" target="U90lkcQAft6ZCRrswfQR-77" edge="1">
          <mxGeometry relative="1" as="geometry" />
        </mxCell>
        <mxCell id="U90lkcQAft6ZCRrswfQR-75" value="Введення&lt;div&gt;тексту картки&lt;/div&gt;" style="shape=parallelogram;perimeter=parallelogramPerimeter;whiteSpace=wrap;html=1;fixedSize=1;" parent="1" vertex="1">
          <mxGeometry x="46" y="890" width="120" height="60" as="geometry" />
        </mxCell>
        <mxCell id="U90lkcQAft6ZCRrswfQR-80" value="" style="edgeStyle=orthogonalEdgeStyle;rounded=0;orthogonalLoop=1;jettySize=auto;html=1;" parent="1" source="U90lkcQAft6ZCRrswfQR-77" target="U90lkcQAft6ZCRrswfQR-79" edge="1">
          <mxGeometry relative="1" as="geometry" />
        </mxCell>
        <mxCell id="U90lkcQAft6ZCRrswfQR-77" value="Натискання кнопки &quot;Опублікувати&quot;" style="whiteSpace=wrap;html=1;" parent="1" vertex="1">
          <mxGeometry x="46" y="990" width="120" height="60" as="geometry" />
        </mxCell>
        <mxCell id="U90lkcQAft6ZCRrswfQR-81" style="edgeStyle=orthogonalEdgeStyle;rounded=0;orthogonalLoop=1;jettySize=auto;html=1;exitX=0;exitY=0.5;exitDx=0;exitDy=0;" parent="1" source="U90lkcQAft6ZCRrswfQR-79" edge="1">
          <mxGeometry relative="1" as="geometry">
            <mxPoint x="106" y="550" as="targetPoint" />
            <Array as="points">
              <mxPoint x="-24" y="1130" />
              <mxPoint x="-24" y="550" />
            </Array>
          </mxGeometry>
        </mxCell>
        <mxCell id="U90lkcQAft6ZCRrswfQR-84" value="" style="edgeStyle=orthogonalEdgeStyle;rounded=0;orthogonalLoop=1;jettySize=auto;html=1;" parent="1" source="U90lkcQAft6ZCRrswfQR-79" target="U90lkcQAft6ZCRrswfQR-83" edge="1">
          <mxGeometry relative="1" as="geometry" />
        </mxCell>
        <mxCell id="U90lkcQAft6ZCRrswfQR-79" value="Дані коректні?" style="rhombus;whiteSpace=wrap;html=1;" parent="1" vertex="1">
          <mxGeometry x="66" y="1090" width="80" height="80" as="geometry" />
        </mxCell>
        <mxCell id="U90lkcQAft6ZCRrswfQR-82" value="Ні" style="text;html=1;align=center;verticalAlign=middle;resizable=0;points=[];autosize=1;strokeColor=none;fillColor=none;" parent="1" vertex="1">
          <mxGeometry x="6" y="1105" width="30" height="30" as="geometry" />
        </mxCell>
        <mxCell id="U90lkcQAft6ZCRrswfQR-86" value="" style="edgeStyle=orthogonalEdgeStyle;rounded=0;orthogonalLoop=1;jettySize=auto;html=1;" parent="1" source="U90lkcQAft6ZCRrswfQR-83" target="U90lkcQAft6ZCRrswfQR-85" edge="1">
          <mxGeometry relative="1" as="geometry" />
        </mxCell>
        <mxCell id="U90lkcQAft6ZCRrswfQR-83" value="Збереження картки в базі даних" style="whiteSpace=wrap;html=1;" parent="1" vertex="1">
          <mxGeometry x="226" y="1100" width="120" height="60" as="geometry" />
        </mxCell>
        <mxCell id="U90lkcQAft6ZCRrswfQR-88" value="" style="edgeStyle=orthogonalEdgeStyle;rounded=0;orthogonalLoop=1;jettySize=auto;html=1;" parent="1" source="U90lkcQAft6ZCRrswfQR-85" target="U90lkcQAft6ZCRrswfQR-87" edge="1">
          <mxGeometry relative="1" as="geometry" />
        </mxCell>
        <mxCell id="U90lkcQAft6ZCRrswfQR-85" value="Відображення підтвердження створення" style="whiteSpace=wrap;html=1;" parent="1" vertex="1">
          <mxGeometry x="226" y="1201" width="120" height="60" as="geometry" />
        </mxCell>
        <mxCell id="U90lkcQAft6ZCRrswfQR-91" value="" style="edgeStyle=orthogonalEdgeStyle;rounded=0;orthogonalLoop=1;jettySize=auto;html=1;" parent="1" source="U90lkcQAft6ZCRrswfQR-87" target="U90lkcQAft6ZCRrswfQR-90" edge="1">
          <mxGeometry relative="1" as="geometry" />
        </mxCell>
        <mxCell id="U90lkcQAft6ZCRrswfQR-87" value="Оновлення списку карток" style="whiteSpace=wrap;html=1;" parent="1" vertex="1">
          <mxGeometry x="226" y="1311" width="120" height="60" as="geometry" />
        </mxCell>
        <mxCell id="U90lkcQAft6ZCRrswfQR-89" value="Так" style="text;html=1;align=center;verticalAlign=middle;resizable=0;points=[];autosize=1;strokeColor=none;fillColor=none;" parent="1" vertex="1">
          <mxGeometry x="166" y="1105" width="40" height="30" as="geometry" />
        </mxCell>
        <mxCell id="U90lkcQAft6ZCRrswfQR-90" value="&lt;span id=&quot;docs-internal-guid-d59dab31-7fff-8128-1e36-32dec2264932&quot;&gt;&lt;span style=&quot;font-family: &amp;quot;Times New Roman&amp;quot;, serif; background-color: transparent; font-variant-numeric: normal; font-variant-east-asian: normal; font-variant-alternates: normal; font-variant-position: normal; vertical-align: baseline; white-space-collapse: preserve;&quot;&gt;&lt;font style=&quot;font-size: 12px;&quot;&gt; Підтвердження про &lt;/font&gt;&lt;/span&gt;&lt;/span&gt;&lt;div&gt;&lt;span&gt;&lt;span style=&quot;font-family: &amp;quot;Times New Roman&amp;quot;, serif; background-color: transparent; font-variant-numeric: normal; font-variant-east-asian: normal; font-variant-alternates: normal; font-variant-position: normal; vertical-align: baseline; white-space-collapse: preserve;&quot;&gt;&lt;font style=&quot;font-size: 12px;&quot;&gt;успішне створення картки&lt;/font&gt;&lt;/span&gt;&lt;/span&gt;&lt;/div&gt;" style="shape=parallelogram;perimeter=parallelogramPerimeter;whiteSpace=wrap;html=1;fixedSize=1;" parent="1" vertex="1">
          <mxGeometry x="206" y="1411" width="160" height="60" as="geometry" />
        </mxCell>
        <mxCell id="U90lkcQAft6ZCRrswfQR-92" value="Кінець" style="ellipse;whiteSpace=wrap;html=1;" parent="1" vertex="1">
          <mxGeometry x="226" y="1511" width="120" height="80" as="geometry" />
        </mxCell>
        <mxCell id="U90lkcQAft6ZCRrswfQR-93" style="edgeStyle=orthogonalEdgeStyle;rounded=0;orthogonalLoop=1;jettySize=auto;html=1;exitX=0.5;exitY=1;exitDx=0;exitDy=0;entryX=0.5;entryY=0;entryDx=0;entryDy=0;" parent="1" source="U90lkcQAft6ZCRrswfQR-90" target="U90lkcQAft6ZCRrswfQR-92" edge="1">
          <mxGeometry relative="1" as="geometry">
            <mxPoint x="286" y="1481" as="sourcePoint" />
          </mxGeometry>
        </mxCell>
        <mxCell id="U90lkcQAft6ZCRrswfQR-95" value="" style="edgeStyle=orthogonalEdgeStyle;rounded=0;orthogonalLoop=1;jettySize=auto;html=1;" parent="1" source="U90lkcQAft6ZCRrswfQR-96" target="U90lkcQAft6ZCRrswfQR-97" edge="1">
          <mxGeometry relative="1" as="geometry" />
        </mxCell>
        <mxCell id="U90lkcQAft6ZCRrswfQR-96" value="Початок" style="ellipse;whiteSpace=wrap;html=1;" parent="1" vertex="1">
          <mxGeometry x="1077" y="120" width="120" height="80" as="geometry" />
        </mxCell>
        <mxCell id="U90lkcQAft6ZCRrswfQR-99" value="" style="edgeStyle=orthogonalEdgeStyle;rounded=0;orthogonalLoop=1;jettySize=auto;html=1;" parent="1" source="U90lkcQAft6ZCRrswfQR-97" target="U90lkcQAft6ZCRrswfQR-98" edge="1">
          <mxGeometry relative="1" as="geometry" />
        </mxCell>
        <mxCell id="U90lkcQAft6ZCRrswfQR-97" value="Вхід в систему" style="whiteSpace=wrap;html=1;" parent="1" vertex="1">
          <mxGeometry x="1077" y="250" width="120" height="60" as="geometry" />
        </mxCell>
        <mxCell id="U90lkcQAft6ZCRrswfQR-101" value="" style="edgeStyle=orthogonalEdgeStyle;rounded=0;orthogonalLoop=1;jettySize=auto;html=1;" parent="1" source="U90lkcQAft6ZCRrswfQR-98" target="U90lkcQAft6ZCRrswfQR-100" edge="1">
          <mxGeometry relative="1" as="geometry" />
        </mxCell>
        <mxCell id="U90lkcQAft6ZCRrswfQR-98" value="Перехід до профілю" style="whiteSpace=wrap;html=1;" parent="1" vertex="1">
          <mxGeometry x="1077" y="350" width="120" height="60" as="geometry" />
        </mxCell>
        <mxCell id="U90lkcQAft6ZCRrswfQR-103" value="" style="edgeStyle=orthogonalEdgeStyle;rounded=0;orthogonalLoop=1;jettySize=auto;html=1;" parent="1" source="U90lkcQAft6ZCRrswfQR-100" target="U90lkcQAft6ZCRrswfQR-102" edge="1">
          <mxGeometry relative="1" as="geometry" />
        </mxCell>
        <mxCell id="U90lkcQAft6ZCRrswfQR-100" value="Відображення&amp;nbsp;&lt;div&gt;даних профілю&lt;/div&gt;" style="shape=parallelogram;perimeter=parallelogramPerimeter;whiteSpace=wrap;html=1;fixedSize=1;" parent="1" vertex="1">
          <mxGeometry x="1067" y="450" width="140" height="60" as="geometry" />
        </mxCell>
        <mxCell id="U90lkcQAft6ZCRrswfQR-107" value="" style="edgeStyle=orthogonalEdgeStyle;rounded=0;orthogonalLoop=1;jettySize=auto;html=1;" parent="1" source="U90lkcQAft6ZCRrswfQR-102" target="U90lkcQAft6ZCRrswfQR-106" edge="1">
          <mxGeometry relative="1" as="geometry" />
        </mxCell>
        <mxCell id="U90lkcQAft6ZCRrswfQR-102" value="Натискання кнопки &quot;Редагувати профіль&quot;" style="whiteSpace=wrap;html=1;" parent="1" vertex="1">
          <mxGeometry x="1077" y="550" width="120" height="60" as="geometry" />
        </mxCell>
        <mxCell id="U90lkcQAft6ZCRrswfQR-109" value="" style="edgeStyle=orthogonalEdgeStyle;rounded=0;orthogonalLoop=1;jettySize=auto;html=1;" parent="1" source="U90lkcQAft6ZCRrswfQR-106" target="U90lkcQAft6ZCRrswfQR-108" edge="1">
          <mxGeometry relative="1" as="geometry" />
        </mxCell>
        <mxCell id="U90lkcQAft6ZCRrswfQR-106" value="Відображення форми редагування профілю" style="shape=parallelogram;perimeter=parallelogramPerimeter;whiteSpace=wrap;html=1;fixedSize=1;" parent="1" vertex="1">
          <mxGeometry x="1057" y="660" width="160" height="60" as="geometry" />
        </mxCell>
        <mxCell id="U90lkcQAft6ZCRrswfQR-111" value="" style="edgeStyle=orthogonalEdgeStyle;rounded=0;orthogonalLoop=1;jettySize=auto;html=1;" parent="1" source="U90lkcQAft6ZCRrswfQR-108" target="U90lkcQAft6ZCRrswfQR-110" edge="1">
          <mxGeometry relative="1" as="geometry" />
        </mxCell>
        <mxCell id="U90lkcQAft6ZCRrswfQR-108" value="Зміна ПІПб" style="whiteSpace=wrap;html=1;" parent="1" vertex="1">
          <mxGeometry x="1077" y="770" width="120" height="60" as="geometry" />
        </mxCell>
        <mxCell id="U90lkcQAft6ZCRrswfQR-113" value="" style="edgeStyle=orthogonalEdgeStyle;rounded=0;orthogonalLoop=1;jettySize=auto;html=1;" parent="1" source="U90lkcQAft6ZCRrswfQR-110" target="U90lkcQAft6ZCRrswfQR-112" edge="1">
          <mxGeometry relative="1" as="geometry" />
        </mxCell>
        <mxCell id="U90lkcQAft6ZCRrswfQR-110" value="Натискання кнопки &quot;Зберегти зміни&quot;" style="whiteSpace=wrap;html=1;" parent="1" vertex="1">
          <mxGeometry x="1077" y="870" width="120" height="60" as="geometry" />
        </mxCell>
        <mxCell id="U90lkcQAft6ZCRrswfQR-114" style="edgeStyle=orthogonalEdgeStyle;rounded=0;orthogonalLoop=1;jettySize=auto;html=1;exitX=0;exitY=0.5;exitDx=0;exitDy=0;" parent="1" source="U90lkcQAft6ZCRrswfQR-112" edge="1">
          <mxGeometry relative="1" as="geometry">
            <mxPoint x="1137" y="740" as="targetPoint" />
            <mxPoint x="1107" y="1020" as="sourcePoint" />
            <Array as="points">
              <mxPoint x="997" y="1020" />
              <mxPoint x="997" y="740" />
            </Array>
          </mxGeometry>
        </mxCell>
        <mxCell id="U90lkcQAft6ZCRrswfQR-118" value="" style="edgeStyle=orthogonalEdgeStyle;rounded=0;orthogonalLoop=1;jettySize=auto;html=1;" parent="1" source="U90lkcQAft6ZCRrswfQR-112" target="U90lkcQAft6ZCRrswfQR-117" edge="1">
          <mxGeometry relative="1" as="geometry" />
        </mxCell>
        <mxCell id="U90lkcQAft6ZCRrswfQR-112" value="Дані коректні?" style="rhombus;whiteSpace=wrap;html=1;" parent="1" vertex="1">
          <mxGeometry x="1097" y="980" width="80" height="80" as="geometry" />
        </mxCell>
        <mxCell id="U90lkcQAft6ZCRrswfQR-116" value="Ні" style="text;html=1;align=center;verticalAlign=middle;resizable=0;points=[];autosize=1;strokeColor=none;fillColor=none;" parent="1" vertex="1">
          <mxGeometry x="1047" y="990" width="30" height="30" as="geometry" />
        </mxCell>
        <mxCell id="U90lkcQAft6ZCRrswfQR-121" value="" style="edgeStyle=orthogonalEdgeStyle;rounded=0;orthogonalLoop=1;jettySize=auto;html=1;" parent="1" source="U90lkcQAft6ZCRrswfQR-117" edge="1">
          <mxGeometry relative="1" as="geometry">
            <mxPoint x="1297" y="1100" as="targetPoint" />
          </mxGeometry>
        </mxCell>
        <mxCell id="U90lkcQAft6ZCRrswfQR-117" value="Збереження нової ПІПб&amp;nbsp;в базі даних" style="whiteSpace=wrap;html=1;" parent="1" vertex="1">
          <mxGeometry x="1237" y="990" width="120" height="60" as="geometry" />
        </mxCell>
        <mxCell id="U90lkcQAft6ZCRrswfQR-119" value="Так" style="text;html=1;align=center;verticalAlign=middle;resizable=0;points=[];autosize=1;strokeColor=none;fillColor=none;" parent="1" vertex="1">
          <mxGeometry x="1187" y="990" width="40" height="30" as="geometry" />
        </mxCell>
        <mxCell id="U90lkcQAft6ZCRrswfQR-127" style="edgeStyle=orthogonalEdgeStyle;rounded=0;orthogonalLoop=1;jettySize=auto;html=1;exitX=0.5;exitY=1;exitDx=0;exitDy=0;entryX=0.5;entryY=0;entryDx=0;entryDy=0;" parent="1" source="U90lkcQAft6ZCRrswfQR-124" target="U90lkcQAft6ZCRrswfQR-126" edge="1">
          <mxGeometry relative="1" as="geometry" />
        </mxCell>
        <mxCell id="U90lkcQAft6ZCRrswfQR-124" value="Підтвердження про успішне&amp;nbsp;редагування&amp;nbsp;&lt;div&gt;ПІПб&lt;/div&gt;" style="shape=parallelogram;perimeter=parallelogramPerimeter;whiteSpace=wrap;html=1;fixedSize=1;" parent="1" vertex="1">
          <mxGeometry x="1217" y="1099" width="160" height="60" as="geometry" />
        </mxCell>
        <mxCell id="U90lkcQAft6ZCRrswfQR-126" value="Кінець" style="ellipse;whiteSpace=wrap;html=1;" parent="1" vertex="1">
          <mxGeometry x="1237" y="1204" width="120" height="80" as="geometry" />
        </mxCell>
      </root>
    </mxGraphModel>
  </diagram>
</mxfile>
